<svg xmlns="http://www.w3.org/2000/svg" viewBox="0 0 1500 1500"><defs><style>.cls-1{isolation:isolate;}.cls-2{fill:#004e87;}.cls-3{fill:#fff;}.cls-4{fill:#e2e8f1;opacity:0.95;}.cls-5{fill:#e8394a;}.cls-6,.cls-7{fill:#010101;mix-blend-mode:multiply;}.cls-6{opacity:0.2;}.cls-7{opacity:0.1;}</style></defs><title>favicon-christmas</title><g class="cls-1"><g id="Capa_1" data-name="Capa 1"><polygon class="cls-2" points="-0.5 1 1500.5 1 1499.5 1501 -0.5 1501 -0.5 1"/><polygon class="cls-3" points="300 1248.67 460.71 1248.67 538.23 645.77 418.53 404.92 300 1248.67"/><polygon class="cls-3" points="750 788.62 569.2 404.92 538.23 645.77 750 1071.88 750 788.62"/><polygon class="cls-4" points="569.2 404.92 418.53 404.92 538.23 645.77 569.2 404.92"/><polygon class="cls-3" points="1200 1248.67 1081.47 404.92 961.77 645.77 1039.29 1248.67 1200 1248.67"/><polygon class="cls-3" points="750 788.62 750 1071.88 961.77 645.77 930.8 404.92 750 788.62"/><polygon class="cls-4" points="930.8 404.92 1081.47 404.92 961.77 645.77 930.8 404.92"/><path class="cls-5" d="M927,381.17S941.42,269,997.5,256.78s76.21,36,82.68,124.39Z"/><path class="cls-6" d="M993.84,257.75c-.63.19-1.25.39-1.87.61l-.62.23-.35.13c-.57.21-1.15.43-1.71.67l-1,.42c-.57.25-1.13.52-1.69.79l-.59.3-.29.14c-.59.31-1.17.62-1.75.95l-.36.21-.38.21c-.66.39-1.32.8-2,1.22l-.16.1-.28.18a58.55,58.55,0,0,0-4.83,3.54c2.23,1.55,22.26,17.18,43.31,87.75-25.91-.44-52-1.58-61.42-4.26-21-5.95-5.33-53.22-5.22-53.54C933.1,333.91,927,381.17,927,381.17h153.15q-1-13.67-2.47-26-1-8.7-2.33-16.72l-.09-.54c-.27-1.64-.55-3.24-.83-4.84-.06-.3-.11-.61-.17-.91-.29-1.61-.59-3.19-.9-4.75l0-.1q-1.5-7.49-3.31-14.26l-.15-.57c-.37-1.37-.75-2.71-1.14-4l-.24-.82c-.4-1.33-.81-2.66-1.23-3.95v0q-2-6.22-4.43-11.7l-.24-.55c-.48-1.09-1-2.16-1.48-3.2-.11-.24-.23-.47-.34-.71-.52-1.05-1-2.09-1.59-3.1v0a75.78,75.78,0,0,0-5.67-9l-.38-.52c-.6-.8-1.21-1.57-1.84-2.33l-.48-.57c-.65-.76-1.3-1.51-2-2.22l0,0a49.19,49.19,0,0,0-7-6.15l-.56-.41c-.73-.51-1.47-1-2.22-1.45l-.67-.4c-.78-.46-1.56-.91-2.37-1.32l-.1-.05a44.18,44.18,0,0,0-8.44-3.22c-.27-.08-.54-.16-.81-.22-.86-.22-1.73-.41-2.61-.58l-.9-.17c-.92-.16-1.84-.31-2.79-.42l-.19,0a57.62,57.62,0,0,0-6.92-.36h0c-.76,0-1.51,0-2.27.07l-1.71.09c-.92.07-1.84.14-2.77.24l-1,.13-.91.11c-.81.11-1.62.21-2.43.34-1.51.25-3.05.53-4.61.87-1,.2-1.88.44-2.8.7Z"/><path class="cls-3" d="M902.77,403.62c-.12-30.22,20.06-39,58.69-40.83,41.5-1.93,116-.27,127.46,9,10.83,8.77,5.17,54.29-6.2,58.76-11.88,4.68-52.83,7.73-98.76,6C931.4,434.53,902.9,439.15,902.77,403.62Z"/><path class="cls-7" d="M1038.66,436.37c6.94-.34,13.33-.79,19-1.35a377.31,377.31,0,0,0,10.83-69c-10.69-1.57-24.36-2.61-38.9-3.22C1033.76,382.64,1037,406.87,1038.66,436.37Z"/><path class="cls-7" d="M1083.93,429.89a8.9,8.9,0,0,0,.88-.67l.09-.09a11.75,11.75,0,0,0,.92-.94h0a26.36,26.36,0,0,0,4.23-7.64l.12-.31c.15-.39.29-.8.44-1.21s.24-.69.35-1a1,1,0,0,0,0-.16c4.39-13.79,5.17-34.61-.2-43.58-1.09,16.41-9.53,43.69-17.17,46.33-11,3.78-46.24,6.14-84.48,5.4-67.18-1.29-64.23-6.28-69.95-36.54a67.35,67.35,0,0,1-1.21-17c-10.19,6.26-15.3,16.08-15.24,31.23.13,35.53,28.63,30.91,81.19,32.91,45.93,1.75,86.88-1.3,98.76-6a5.8,5.8,0,0,0,1-.54Z"/><path class="cls-5" d="M973.53,269.59s71.1-9.41,72.14,210.09c0,0,28.2-46.36,29.56-142.18S1009.25,241.41,973.53,269.59Z"/><path class="cls-3" d="M1071.55,475.7a7.32,7.32,0,0,0-6.13-7.19,7.28,7.28,0,0,0-10.17-10.16,7.27,7.27,0,0,0-14.37,0,7.28,7.28,0,0,0-10.17,10.16,7.28,7.28,0,0,0,0,14.38,7.28,7.28,0,0,0,10.17,10.16,7.27,7.27,0,0,0,14.37,0,7.28,7.28,0,0,0,10.17-10.16A7.32,7.32,0,0,0,1071.55,475.7Z"/></g></g></svg>